<svg data-v-1084b650="" xmlns="http://www.w3.org/2000/svg" viewBox="0 0 300 300"><!----> <!----> <rect data-v-1084b650="" fill="white" x="0" y="0" width="300px" height="300px" class="logo-background-square"></rect> <!----> <g data-v-1084b650="" id="db789ac1-a3ff-044a-057c-69804197f4b3" fill="black" transform="matrix(2.8,0,0,2.8,31.98000066280366,126.0320016860962)"><path d="M8.09 5.74C7.21 5.74 6.42 6.21 5.99 6.91C5.53 6.20 4.76 5.74 3.96 5.74C3.26 5.74 2.61 6.09 2.19 6.65L2.19 5.88L1.37 5.88L1.37 12.88L2.19 12.88L2.19 8.33C2.19 7.32 2.92 6.56 3.87 6.56C4.81 6.56 5.57 7.32 5.57 8.33L5.57 12.88L6.39 12.88L6.39 8.33C6.39 7.32 7.14 6.56 8.07 6.56C9.01 6.56 9.77 7.32 9.77 8.33L9.77 12.88L10.57 12.88L10.57 8.33C10.57 6.88 9.47 5.74 8.09 5.74ZM13.76 4.53C14.11 4.53 14.40 4.25 14.40 3.90C14.40 3.54 14.11 3.25 13.76 3.25C13.41 3.25 13.11 3.54 13.11 3.90C13.11 4.25 13.41 4.53 13.76 4.53ZM13.35 12.88L14.16 12.88L14.16 5.88L13.35 5.88ZM23.00 5.88L23.00 7.07C22.33 6.25 21.32 5.74 20.18 5.74C18.17 5.74 16.54 7.35 16.54 9.38C16.54 11.39 18.17 13.02 20.18 13.02C21.32 13.02 22.33 12.50 23.00 11.69L23.00 13.48C23.00 15.03 21.74 16.29 20.18 16.29C19.01 16.29 17.99 15.58 17.57 14.53L16.82 14.88C17.38 16.21 18.67 17.12 20.18 17.12C22.19 17.12 23.82 15.49 23.82 13.48L23.82 5.88ZM20.18 12.20C18.60 12.20 17.34 10.94 17.34 9.38C17.34 7.81 18.60 6.56 20.18 6.56C21.74 6.56 23.00 7.81 23.00 9.38C23.00 10.94 21.74 12.20 20.18 12.20ZM27.39 12.06L31.82 5.88L26.09 5.88L26.09 6.70L30.26 6.70L25.85 12.88L31.87 12.88L31.87 12.06ZM40.65 9.28C40.58 7.28 39.01 5.74 37.03 5.74C35.02 5.74 33.39 7.37 33.39 9.38C33.39 11.39 35.02 13.02 37.03 13.02C38.68 13.02 40.06 11.94 40.51 10.43L39.66 10.43C39.24 11.48 38.22 12.20 37.03 12.20C35.49 12.20 34.23 10.99 34.20 9.47L40.65 9.47ZM37.03 6.56C38.34 6.56 39.46 7.47 39.76 8.71L34.28 8.71C34.58 7.46 35.68 6.56 37.03 6.56ZM44.49 13.02C45.68 13.02 46.66 12.21 46.66 11.08C46.66 9.82 45.62 9.36 44.70 8.98C43.84 8.63 43.26 8.38 43.26 7.63C43.26 6.88 43.82 6.56 44.45 6.56C44.94 6.56 45.40 6.75 45.64 7.17L46.34 6.79C46.06 6.23 45.26 5.74 44.42 5.74C43.45 5.74 42.44 6.39 42.44 7.67C42.44 8.80 43.24 9.31 44.40 9.75C45.24 10.08 45.83 10.36 45.83 11.06C45.83 11.79 45.20 12.21 44.49 12.21C43.75 12.21 43.03 11.79 42.89 11.24L42.11 11.55C42.39 12.37 43.40 13.02 44.49 13.02ZM51.66 6.69L51.66 5.88L49.74 5.88L49.74 2.83L48.91 2.83L48.91 5.88L47.74 5.88L47.74 6.69L48.91 6.69L48.91 11.20C48.91 12.20 49.75 13.02 50.77 13.02C51.08 13.02 51.45 12.92 51.64 12.79L51.64 12.21L50.86 12.21C50.24 12.21 49.74 11.76 49.74 11.10L49.74 6.69ZM56.86 5.74C55.84 5.74 55.00 6.23 54.50 6.96L54.50 5.88L53.67 5.88L53.67 12.88L54.50 12.88L54.50 8.87C54.50 7.56 55.55 6.56 56.86 6.56C57.07 6.56 57.28 6.58 57.44 6.63L57.44 5.79C57.26 5.76 57.07 5.74 56.86 5.74ZM65.68 9.28C65.61 7.28 64.03 5.74 62.06 5.74C60.04 5.74 58.42 7.37 58.42 9.38C58.42 11.39 60.04 13.02 62.06 13.02C63.70 13.02 65.08 11.94 65.54 10.43L64.68 10.43C64.26 11.48 63.25 12.20 62.06 12.20C60.52 12.20 59.26 10.99 59.22 9.47L65.68 9.47ZM62.06 6.56C63.37 6.56 64.49 7.47 64.79 8.71L59.31 8.71C59.61 7.46 60.71 6.56 62.06 6.56ZM67.83 12.88L68.65 12.88L68.65 0L67.83 0ZM71.38 12.88L72.20 12.88L72.20 0L71.38 0ZM82.46 12.21C82.02 12.21 81.71 11.92 81.71 11.25L81.71 5.88L80.88 5.88L80.88 7.09C80.22 6.27 79.20 5.74 78.07 5.74C76.05 5.74 74.43 7.37 74.43 9.38C74.43 11.39 76.05 13.02 78.07 13.02C79.22 13.02 80.25 12.48 80.90 11.62C81.02 12.46 81.57 13.02 82.41 13.02C82.60 13.02 82.79 12.97 82.93 12.88L82.93 12.21ZM78.07 12.20C76.49 12.20 75.23 10.96 75.23 9.38C75.23 7.81 76.49 6.56 78.07 6.56C79.63 6.56 80.88 7.81 80.88 9.38C80.88 10.96 79.63 12.20 78.07 12.20Z"></path></g> <!----></svg>